<svg width="200" height="45" viewBox="0 0 200 45" fill="none" xmlns="http://www.w3.org/2000/svg">
<path d="M84.6153 30.9626C92.3536 30.9626 96.2411 26.974 96.2411 21.0187C96.2411 14.2362 90.1663 9.92595 83.3838 9.92595H68.9091C68.2474 9.92595 67.8614 10.2936 67.8614 10.8909V42.4781C67.8614 43.1214 68.2382 43.489 68.9091 43.489H73.6972C74.313 43.489 74.6898 43.1214 74.6898 42.4781V17.076C74.6898 16.4327 75.0666 16.0651 75.7375 16.0651H82.7589C86.7475 16.0651 89.1186 18.0778 89.1186 21.2025C89.1186 25.3749 85.516 26.9281 78.5405 26.3858C77.8788 26.3399 77.548 26.7534 77.548 27.3508L77.5939 28.8672C78.0167 38.9031 84.4775 43.5809 93.2543 43.5809H94.7707C95.4324 43.535 95.7632 43.1214 95.7632 42.57V38.4435C95.7632 37.8462 95.3864 37.5245 94.7155 37.5245H93.8149C89.1646 37.5245 84.9921 35.5026 83.9445 31.9736C83.6595 31.3762 83.7606 31.0086 84.6153 30.9626ZM25.3377 9.92595H1.0477C0.376803 9.92595 0 10.2936 0 10.8909V15.1093C0 15.7067 0.376803 16.0743 1.0477 16.0743H8.87786C9.49361 16.0743 9.82446 16.3959 9.82446 16.9933V42.4781C9.82446 43.1214 10.2013 43.489 10.817 43.489H15.6052C16.2669 43.489 16.6529 43.1214 16.6529 42.4781V16.9841C16.6529 16.3868 16.9837 16.0651 17.5995 16.0651H25.3377C25.9994 16.0651 26.3854 15.6975 26.3854 15.1001V10.8817C26.3854 10.2936 25.9994 9.92595 25.3377 9.92595ZM44.7477 9.37453C36.6326 9.37453 27.4239 14.9714 27.4239 26.8362C27.4239 37.1477 34.6383 43.9761 45.9792 43.9761C55.1879 43.9761 58.9284 39.3901 59.4063 38.8387C59.829 38.4252 59.8842 37.8737 59.4063 37.3683L57.1271 34.7582C56.7503 34.3447 56.1345 34.2068 55.6107 34.6204C54.2321 35.6772 50.9144 37.8737 46.0711 37.8737C39.3346 37.8737 35.493 34.3447 34.6843 30.8615C34.3994 30.2182 34.8313 29.8506 35.493 29.8506H60.3529C61.2535 29.8506 61.9152 29.3911 61.9704 28.5639C62.7332 17.5355 56.4654 9.37453 44.7477 9.37453ZM53.9013 24.5478H35.2541C34.6383 24.5478 34.3994 24.1342 34.5464 23.5368C35.1162 19.3644 38.535 15.5596 44.7018 15.5596C51.4383 15.5596 54.4251 19.8239 54.7652 23.5828C54.903 24.2261 54.6181 24.5478 53.9013 24.5478ZM118.693 30.9626C126.431 30.9626 130.319 26.974 130.319 21.0187C130.319 14.2362 124.244 9.92595 117.462 9.92595H102.987C102.325 9.92595 101.939 10.2936 101.939 10.8909V42.4781C101.939 43.1214 102.316 43.489 102.987 43.489H107.775C108.391 43.489 108.768 43.1214 108.768 42.4781V17.076C108.768 16.4327 109.144 16.0651 109.815 16.0651H116.837C120.825 16.0651 123.196 18.0778 123.196 21.2025C123.196 25.3749 119.594 26.9281 112.618 26.3858C111.957 26.3399 111.626 26.7534 111.626 27.3508L111.672 28.8672C112.094 38.9031 118.555 43.5809 127.332 43.5809H128.848C129.51 43.535 129.841 43.1214 129.841 42.57V38.4435C129.841 37.8462 129.464 37.5245 128.793 37.5245H127.893C123.242 37.5245 119.07 35.5026 118.022 31.9736C117.737 31.3762 117.838 31.0086 118.693 30.9626ZM164.479 9.92595H159.691C159.075 9.92595 158.699 10.2936 158.699 10.8909V35.9622C158.699 36.5136 158.414 36.8352 157.936 36.9731C156.658 37.3867 154.802 37.9381 151.769 37.9381C146.834 37.9381 142.138 36.2838 142.138 29.869V10.8909C142.138 10.2936 141.761 9.92595 141.145 9.92595H136.357C135.695 9.92595 135.309 10.2936 135.309 10.8909V29.869C135.309 38.995 141.338 44.0313 152.054 44.0313C156.465 44.0313 161.116 43.2501 164.534 41.8348C165.297 41.5591 165.527 41.0076 165.527 40.4562V10.8909C165.527 10.2936 165.141 9.92595 164.479 9.92595ZM187.464 9.31939C186.996 9.30101 184.431 9.37453 182.299 10.8174C181.849 11.1299 181.592 11.0012 181.491 11.0012L183.834 9.24587L191.122 3.31811C191.6 2.90454 191.545 2.35312 190.929 2.12336L186.086 0.110682C185.608 -0.119076 185.231 0.018779 184.9 0.432344L175.315 11.2677C175.269 11.3321 175.241 11.3872 175.223 11.4332C175.076 11.6537 175.03 11.9386 175.112 12.2695L176.013 15.9364C176.206 16.7176 176.721 16.9014 177.484 16.7176C178.954 16.2581 181.077 15.3391 184.772 15.3391C191.315 15.3391 193.126 18.087 193.171 22.3513C193.171 22.8567 192.933 23.1784 192.317 23.0865C190.084 22.7648 188.282 22.4891 184.965 22.4891C175.379 22.4891 170.159 26.6156 170.159 33.49C170.159 40.1346 175.471 44.0313 185.387 44.0313C190.653 44.0313 195.497 43.5717 199.292 42.2024C199.77 42.0645 200 41.651 200 41.0076V23.9504C200.018 14.7601 197.417 9.74215 187.464 9.31939ZM193.181 36.5136C193.181 37.019 192.942 37.3867 192.418 37.4786C191.563 37.7543 189.523 38.2138 185.589 38.2138C180.232 38.2138 177.144 36.6974 177.144 33.3061C177.144 30.2825 179.322 28.1688 185.02 28.1688C188.53 28.1688 191.186 28.6283 192.372 28.858C192.896 28.9499 193.181 29.2716 193.181 29.823V36.5136Z" fill="white"/>
</svg>
