<svg width="44" height="44" viewBox="0 0 44 44" fill="none" xmlns="http://www.w3.org/2000/svg">
<g clip-path="url(#clip0)">
<path d="M43.0265 10.8698L43.0815 11.2292C42.5498 9.34265 41.1143 7.88699 39.2902 7.35715L39.2517 7.34798C35.8215 6.41665 22.0183 6.41665 22.0183 6.41665C22.0183 6.41665 8.24999 6.39832 4.78499 7.34798C2.92599 7.88699 1.48866 9.34265 0.966157 11.1907L0.95699 11.2292C-0.32451 17.9227 -0.333677 25.9655 1.01382 33.132L0.95699 32.769C1.48866 34.6555 2.92416 36.1112 4.74832 36.641L4.78682 36.6502C8.21332 37.5833 22.0202 37.5833 22.0202 37.5833C22.0202 37.5833 35.7867 37.5833 39.2535 36.6502C41.1143 36.1112 42.5517 34.6555 43.0742 32.8075L43.0833 32.769C43.6663 29.656 44 26.0737 44 22.4143C44 22.2805 44 22.1448 43.9982 22.0092C44 21.8845 44 21.736 44 21.5875C44 17.9263 43.6663 14.344 43.0265 10.8698ZM17.6147 28.6935V15.323L29.1023 22.0183L17.6147 28.6935Z" fill="white"/>
</g>
<defs>
<clipPath id="clip0">
<rect width="44" height="44" fill="white"/>
</clipPath>
</defs>
</svg>
