<svg width="18" height="18" viewBox="0 0 18 18" fill="none" xmlns="http://www.w3.org/2000/svg">
<g clip-path="url(#clip0)">
<path d="M17.9955 18V17.9992H18V11.3977C18 8.16823 17.3048 5.68048 13.5293 5.68048C11.7143 5.68048 10.4963 6.67648 9.99901 7.62073H9.94651V5.98198H6.36676V17.9992H10.0943V12.0487C10.0943 10.482 10.3913 8.96698 12.3315 8.96698C14.2433 8.96698 14.2718 10.755 14.2718 12.1492V18H17.9955Z" fill="white"/>
<path d="M0.296997 5.98276H4.029V18H0.296997V5.98276Z" fill="white"/>
<path d="M2.1615 0C0.96825 0 0 0.96825 0 2.1615C0 3.35475 0.96825 4.34325 2.1615 4.34325C3.35475 4.34325 4.323 3.35475 4.323 2.1615C4.32225 0.96825 3.354 0 2.1615 0V0Z" fill="white"/>
</g>
<defs>
<clipPath id="clip0">
<rect width="18" height="18" fill="white"/>
</clipPath>
</defs>
</svg>
