<svg width="18" height="18" viewBox="0 0 18 18" fill="none" xmlns="http://www.w3.org/2000/svg">
<g clip-path="url(#clip0)">
<path d="M9.00299 4.37851C6.45074 4.37851 4.38449 6.44701 4.38449 8.99701C4.38449 11.5493 6.45299 13.6155 9.00299 13.6155C11.5552 13.6155 13.6215 11.547 13.6215 8.99701C13.6215 6.44476 11.553 4.37851 9.00299 4.37851ZM9.00299 11.9948C7.34624 11.9948 6.00524 10.653 6.00524 8.99701C6.00524 7.34101 7.34699 5.99926 9.00299 5.99926C10.659 5.99926 12.0007 7.34101 12.0007 8.99701C12.0015 10.653 10.6597 11.9948 9.00299 11.9948Z" fill="white"/>
<path d="M12.7107 0.0576692C11.0547 -0.0195809 6.95299 -0.0158309 5.29549 0.0576692C3.83899 0.125919 2.55424 0.477669 1.51849 1.51342C-0.212507 3.24442 0.0087432 5.57692 0.0087432 8.99767C0.0087432 12.4987 -0.186257 14.7772 1.51849 16.4819C3.25624 18.2189 5.62249 17.9917 9.00274 17.9917C12.4707 17.9917 13.6677 17.9939 14.894 17.5192C16.5612 16.8719 17.8197 15.3817 17.9427 12.7049C18.0207 11.0482 18.0162 6.94717 17.9427 5.28967C17.7942 2.12992 16.0985 0.213669 12.7107 0.0576692ZM15.332 15.3367C14.1972 16.4714 12.623 16.3702 8.98099 16.3702C5.23099 16.3702 3.72724 16.4257 2.62999 15.3254C1.36624 14.0677 1.59499 12.0479 1.59499 8.98567C1.59499 4.84192 1.16974 1.85767 5.32849 1.64467C6.28399 1.61092 6.56524 1.59967 8.97049 1.59967L9.00424 1.62217C13.001 1.62217 16.1367 1.20367 16.325 5.36167C16.3677 6.31042 16.3775 6.59542 16.3775 8.99692C16.3767 12.7034 16.4472 14.2162 15.332 15.3367Z" fill="white"/>
<path d="M13.8045 5.27551C14.4006 5.27551 14.8838 4.79231 14.8838 4.19626C14.8838 3.6002 14.4006 3.117 13.8045 3.117C13.2084 3.117 12.7253 3.6002 12.7253 4.19626C12.7253 4.79231 13.2084 5.27551 13.8045 5.27551Z" fill="white"/>
</g>
<defs>
<clipPath id="clip0">
<rect width="18" height="18" fill="white"/>
</clipPath>
</defs>
</svg>
